<svg width="32" height="32" viewBox="0 0 32 32" fill="none" xmlns="http://www.w3.org/2000/svg">
<g clip-path="url(#clip0_2195_96)">
<path d="M20 27.1798L17.41 24.5898L16 25.9998L20 29.9998L28 21.9998L26.59 20.5898L20 27.1798Z" fill="white"/>
<path d="M10 28V10H22V19H24V6C23.9994 5.46975 23.7885 4.9614 23.4135 4.58646C23.0386 4.21152 22.5302 4.00061 22 4H10C9.46973 4.00053 8.96133 4.21141 8.58637 4.58637C8.21141 4.96133 8.00053 5.46973 8 6V28C8.00061 28.5302 8.21152 29.0386 8.58646 29.4135C8.9614 29.7885 9.46975 29.9994 10 30H14V28H10ZM10 6H22V8H10V6Z" fill="white"/>
</g>
<defs>
<clipPath id="clip0_2195_96">
<rect width="32" height="32" fill="white"/>
</clipPath>
</defs>
</svg>
